<svg xmlns="http://www.w3.org/2000/svg" viewBox="0 0 56 56">
  <defs>
    <radialGradient id="u1bg" cx="50%" cy="50%" r="50%">
      <stop offset="0%" stop-color="#0a0a12"/>
      <stop offset="100%" stop-color="#04040a"/>
    </radialGradient>
  </defs>
  <circle cx="28" cy="28" r="27" fill="url(#u1bg)" stroke="#6688aa" stroke-width="1.2"/>
  <!-- 頭巻物 -->
  <ellipse cx="28" cy="22" rx="13" ry="12" fill="#1a1a28" stroke="#6688aa" stroke-width="1"/>
  <!-- 鉢巻き -->
  <rect x="15" y="17" width="26" height="5" rx="2" fill="#223344" stroke="#6688aa" stroke-width="0.8"/>
  <!-- 鉢巻き端 -->
  <path d="M41 17 L46 14 L44 20 Z" fill="#223344" stroke="#6688aa" stroke-width="0.7"/>
  <!-- 目だけ見える -->
  <rect x="17" y="21" width="22" height="7" rx="2" fill="#0f1520"/>
  <!-- 目 -->
  <ellipse cx="23" cy="25" rx="3" ry="2.5" fill="#446688"/>
  <ellipse cx="33" cy="25" rx="3" ry="2.5" fill="#446688"/>
  <ellipse cx="23" cy="25" rx="1.5" ry="1.5" fill="#88aacc"/>
  <ellipse cx="33" cy="25" rx="1.5" ry="1.5" fill="#88aacc"/>
  <circle cx="23.5" cy="24.5" r="0.6" fill="#fff" opacity="0.7"/>
  <circle cx="33.5" cy="24.5" r="0.6" fill="#fff" opacity="0.7"/>
  <!-- マスク -->
  <path d="M15 28 Q28 32 41 28 L41 38 Q28 44 15 38 Z" fill="#1a1a28" stroke="#6688aa" stroke-width="0.8"/>
  <!-- 胴体 -->
  <rect x="19" y="38" width="18" height="10" rx="3" fill="#111120" stroke="#6688aa" stroke-width="0.8"/>
  <!-- 手裏剣マーク -->
  <path d="M28 40 L30 43 L28 46 L26 43 Z M26 41 L29 43 L32 41 L29 45 Z" fill="#6688aa" opacity="0.7"/>
</svg>
