<svg xmlns="http://www.w3.org/2000/svg" viewBox="0 0 56 56">
  <defs>
    <radialGradient id="u6bg" cx="50%" cy="50%" r="50%">
      <stop offset="0%" stop-color="#061410"/>
      <stop offset="100%" stop-color="#020806"/>
    </radialGradient>
    <filter id="u6glow">
      <feGaussianBlur stdDeviation="1.5" result="blur"/>
      <feMerge><feMergeNode in="blur"/><feMergeNode in="SourceGraphic"/></feMerge>
    </filter>
  </defs>
  <circle cx="28" cy="28" r="27" fill="url(#u6bg)" stroke="#44cc88" stroke-width="1.2"/>
  <!-- 森の背景っぽい装飾 -->
  <circle cx="8" cy="48" r="6" fill="#0a2018" opacity="0.6"/>
  <circle cx="48" cy="48" r="6" fill="#0a2018" opacity="0.6"/>
  <circle cx="28" cy="52" r="5" fill="#0a2018" opacity="0.5"/>
  <!-- 髪（長い銀髪） -->
  <path d="M15 22 Q10 30 12 44" stroke="#d0e8d8" stroke-width="3" fill="none" stroke-linecap="round"/>
  <path d="M41 22 Q46 30 44 44" stroke="#d0e8d8" stroke-width="3" fill="none" stroke-linecap="round"/>
  <ellipse cx="28" cy="20" rx="13" ry="10" fill="#c8e0d0"/>
  <!-- 尖り耳 -->
  <path d="M15 22 Q8 18 11 14 Q14 18 17 20" fill="#c8e0d0" stroke="#44cc88" stroke-width="0.7"/>
  <path d="M41 22 Q48 18 45 14 Q42 18 39 20" fill="#c8e0d0" stroke="#44cc88" stroke-width="0.7"/>
  <!-- 顔 -->
  <ellipse cx="28" cy="27" rx="11" ry="12" fill="#b8d8c0"/>
  <!-- 目（エメラルド） -->
  <ellipse cx="23" cy="25" rx="3.5" ry="3" fill="#062010" stroke="#44cc88" stroke-width="0.8"/>
  <ellipse cx="33" cy="25" rx="3.5" ry="3" fill="#062010" stroke="#44cc88" stroke-width="0.8"/>
  <ellipse cx="23" cy="25" rx="2.2" ry="2" fill="#22aa66" filter="url(#u6glow)"/>
  <ellipse cx="33" cy="25" rx="2.2" ry="2" fill="#22aa66" filter="url(#u6glow)"/>
  <circle cx="23.7" cy="24.3" r="0.8" fill="#aaffcc" opacity="0.9"/>
  <circle cx="33.7" cy="24.3" r="0.8" fill="#aaffcc" opacity="0.9"/>
  <!-- 眉 -->
  <path d="M20 22 Q23 20.5 26 22" stroke="#888" stroke-width="0.8" fill="none"/>
  <path d="M30 22 Q33 20.5 36 22" stroke="#888" stroke-width="0.8" fill="none"/>
  <!-- 鼻 -->
  <path d="M27 28 Q28 30 29 28" stroke="#999" stroke-width="0.7" fill="none"/>
  <!-- 口 -->
  <path d="M24 32 Q28 35 32 32" stroke="#88aa99" stroke-width="1" fill="none"/>
  <!-- 額の紋様 -->
  <path d="M25 19 Q28 17 31 19" stroke="#44cc88" stroke-width="0.8" fill="none" filter="url(#u6glow)"/>
  <circle cx="28" cy="18" r="1.5" fill="#44cc88" filter="url(#u6glow)"/>
  <!-- 服（緑のローブ） -->
  <path d="M17 37 Q28 42 39 37 L41 48 Q28 52 15 48 Z" fill="#0e3020" stroke="#44cc88" stroke-width="0.9"/>
  <!-- ローブ装飾 -->
  <path d="M22 40 Q28 43 34 40" stroke="#44cc88" stroke-width="0.7" fill="none" opacity="0.7"/>
</svg>
