<svg xmlns="http://www.w3.org/2000/svg" viewBox="0 0 56 56">
  <defs>
    <radialGradient id="u4bg" cx="50%" cy="50%" r="50%">
      <stop offset="0%" stop-color="#0a0414"/>
      <stop offset="100%" stop-color="#04010a"/>
    </radialGradient>
    <filter id="u4glow">
      <feGaussianBlur stdDeviation="1.5" result="blur"/>
      <feMerge><feMergeNode in="blur"/><feMergeNode in="SourceGraphic"/></feMerge>
    </filter>
  </defs>
  <circle cx="28" cy="28" r="27" fill="url(#u4bg)" stroke="#ff44aa" stroke-width="1.2"/>
  <!-- 頭・髪 -->
  <ellipse cx="28" cy="21" rx="13" ry="13" fill="#120820"/>
  <!-- サイバーヘアー -->
  <path d="M15 16 Q18 8 28 10 Q38 8 41 16" fill="#1e0830" stroke="#ff44aa" stroke-width="0.8"/>
  <line x1="22" y1="9" x2="20" y2="4" stroke="#ff44aa" stroke-width="1.2"/>
  <line x1="28" y1="8" x2="28" y2="3" stroke="#ff44aa" stroke-width="1.2"/>
  <line x1="34" y1="9" x2="36" y2="4" stroke="#ff44aa" stroke-width="1.2"/>
  <circle cx="20" cy="4" r="1.5" fill="#ff44aa" filter="url(#u4glow)"/>
  <circle cx="28" cy="3" r="1.5" fill="#ff44aa" filter="url(#u4glow)"/>
  <circle cx="36" cy="4" r="1.5" fill="#ff44aa" filter="url(#u4glow)"/>
  <!-- 顔 -->
  <ellipse cx="28" cy="23" rx="11" ry="11" fill="#0e0618"/>
  <!-- サイバー義眼（左） -->
  <ellipse cx="22" cy="22" rx="4" ry="3.5" fill="#060210" stroke="#ff44aa" stroke-width="0.8"/>
  <ellipse cx="22" cy="22" rx="2.5" ry="2" fill="#ff0066" opacity="0.9" filter="url(#u4glow)"/>
  <line x1="18" y1="22" x2="15" y2="21" stroke="#ff44aa" stroke-width="0.8"/>
  <!-- 普通の目（右） -->
  <ellipse cx="34" cy="22" rx="3.5" ry="3" fill="#060210" stroke="#cc88ff" stroke-width="0.8"/>
  <ellipse cx="34" cy="22" rx="1.8" ry="1.8" fill="#aa55ff" filter="url(#u4glow)"/>
  <!-- 口 -->
  <path d="M22 30 L26 28 L30 30 L34 28" stroke="#ff44aa" stroke-width="1" fill="none"/>
  <!-- 顎ライン -->
  <path d="M17 26 Q28 36 39 26" stroke="#ff44aa" stroke-width="0.7" fill="none" opacity="0.5"/>
  <!-- 首・胴体 -->
  <rect x="22" y="33" width="12" height="4" rx="2" fill="#120820" stroke="#ff44aa" stroke-width="0.8"/>
  <rect x="18" y="37" width="20" height="9" rx="3" fill="#0e0618" stroke="#ff44aa" stroke-width="0.8"/>
  <!-- 胸の回路 -->
  <path d="M22 41 H26 V43 H30 V41 H34" stroke="#ff44aa" stroke-width="0.7" fill="none" opacity="0.8"/>
  <circle cx="28" cy="42" r="1.2" fill="#ff44aa" filter="url(#u4glow)"/>
</svg>
