<svg xmlns="http://www.w3.org/2000/svg" viewBox="0 0 56 56">
  <defs>
    <radialGradient id="b4bg" cx="50%" cy="50%" r="50%">
      <stop offset="0%" stop-color="#1a1208"/>
      <stop offset="100%" stop-color="#0a0804"/>
    </radialGradient>
    <filter id="b4glow">
      <feGaussianBlur stdDeviation="1.5" result="blur"/>
      <feMerge><feMergeNode in="blur"/><feMergeNode in="SourceGraphic"/></feMerge>
    </filter>
  </defs>
  <circle cx="28" cy="28" r="27" fill="url(#b4bg)" stroke="#d4a020" stroke-width="1.2"/>
  <!-- 耳 -->
  <polygon points="18,14 14,8 22,12" fill="#3a2a08" stroke="#d4a020" stroke-width="0.8"/>
  <polygon points="38,14 42,8 34,12" fill="#3a2a08" stroke="#d4a020" stroke-width="0.8"/>
  <!-- 体 -->
  <ellipse cx="28" cy="34" rx="14" ry="15" fill="#2a1e06" stroke="#d4a020" stroke-width="1"/>
  <!-- 頭 -->
  <ellipse cx="28" cy="22" rx="13" ry="12" fill="#2a1e06" stroke="#d4a020" stroke-width="1"/>
  <!-- 翼模様 -->
  <path d="M15 32 Q10 28 14 24" stroke="#c89010" stroke-width="0.8" fill="none" opacity="0.7"/>
  <path d="M41 32 Q46 28 42 24" stroke="#c89010" stroke-width="0.8" fill="none" opacity="0.7"/>
  <!-- 目 -->
  <circle cx="22" cy="21" r="5.5" fill="#0a0800" stroke="#f0c030" stroke-width="1.2"/>
  <circle cx="34" cy="21" r="5.5" fill="#0a0800" stroke="#f0c030" stroke-width="1.2"/>
  <circle cx="22" cy="21" r="3" fill="#d4a020" filter="url(#b4glow)"/>
  <circle cx="34" cy="21" r="3" fill="#d4a020" filter="url(#b4glow)"/>
  <circle cx="22" cy="21" r="1.2" fill="#000"/>
  <circle cx="34" cy="21" r="1.2" fill="#000"/>
  <circle cx="22.8" cy="20.2" r="0.6" fill="#fff" opacity="0.8"/>
  <circle cx="34.8" cy="20.2" r="0.6" fill="#fff" opacity="0.8"/>
  <!-- くちばし -->
  <polygon points="28,25 25,28 31,28" fill="#c89010"/>
  <!-- 胸模様 -->
  <ellipse cx="28" cy="38" rx="6" ry="7" fill="#1a1204" stroke="#c89010" stroke-width="0.6" opacity="0.8"/>
</svg>
