<svg xmlns="http://www.w3.org/2000/svg" viewBox="0 0 56 56">
  <defs>
    <radialGradient id="b2bg" cx="50%" cy="50%" r="50%">
      <stop offset="0%" stop-color="#0e1a10"/>
      <stop offset="100%" stop-color="#040a05"/>
    </radialGradient>
    <filter id="b2glow">
      <feGaussianBlur stdDeviation="1.5" result="blur"/>
      <feMerge><feMergeNode in="blur"/><feMergeNode in="SourceGraphic"/></feMerge>
    </filter>
  </defs>
  <circle cx="28" cy="28" r="27" fill="url(#b2bg)" stroke="#00cc44" stroke-width="1.2"/>
  <!-- 回路ライン -->
  <path d="M10 20 H18 V14 H28" stroke="#00cc44" stroke-width="0.8" fill="none" opacity="0.7"/>
  <path d="M10 36 H18 V42 H28" stroke="#00cc44" stroke-width="0.8" fill="none" opacity="0.7"/>
  <path d="M46 20 H38 V14 H28" stroke="#00cc44" stroke-width="0.8" fill="none" opacity="0.7"/>
  <path d="M46 36 H38 V42 H28" stroke="#00cc44" stroke-width="0.8" fill="none" opacity="0.7"/>
  <!-- ノード -->
  <circle cx="18" cy="20" r="2" fill="#00ff44" filter="url(#b2glow)"/>
  <circle cx="18" cy="36" r="2" fill="#00ff44" filter="url(#b2glow)"/>
  <circle cx="38" cy="20" r="2" fill="#00ff44" filter="url(#b2glow)"/>
  <circle cx="38" cy="36" r="2" fill="#00ff44" filter="url(#b2glow)"/>
  <!-- 中央AI顔 -->
  <rect x="17" y="17" width="22" height="22" rx="4" fill="#060e07" stroke="#00cc44" stroke-width="1.2"/>
  <!-- 目 -->
  <ellipse cx="23" cy="26" rx="3" ry="3.5" fill="#00cc44" opacity="0.9" filter="url(#b2glow)"/>
  <ellipse cx="33" cy="26" rx="3" ry="3.5" fill="#00cc44" opacity="0.9" filter="url(#b2glow)"/>
  <ellipse cx="23" cy="26" rx="1.2" ry="1.5" fill="#aaffcc"/>
  <ellipse cx="33" cy="26" rx="1.2" ry="1.5" fill="#aaffcc"/>
  <!-- 口 -->
  <path d="M22 32 Q28 35 34 32" stroke="#00cc44" stroke-width="1" fill="none"/>
</svg>
